ffmpeg started on 2016-11-28 at 05:52:52
Report written to "Output/NVENCh264/results/ffmpeg/crowd_run_2160p50llhp11000k.log"
Command line:
Tools/ffmpeg/ffmpeg -benchmark -y -i Input/y4m/crowd_run_2160p50.y4m -c:v h264_nvenc -preset llhp -b:v 11000k -an Output/NVENCh264/encoded/crowd_run_2160p50llhp11000k.mkv
ffmpeg version N-82227-gdb23fde Copyright (c) 2000-2016 the FFmpeg developers
  built with gcc 5.4.0 (Ubuntu 5.4.0-6ubuntu1~16.04.2) 20160609
  configuration: --prefix=/home/jaroslav/ffmpeg_build --pkg-config-flags=--static --extra-cflags=-I/home/jaroslav/ffmpeg_build/include --extra-ldflags=-L/home/jaroslav/ffmpeg_build/lib --bindir=/home/jaroslav/bin --enable-gpl --enable-libass --enable-libfdk-aac --enable-libfreetype --enable-libmp3lame --enable-libopus --enable-libtheora --enable-libvorbis --enable-libvpx --enable-libx264 --enable-libx265 --enable-nvenc --enable-libmfx --enable-libxvid --enable-libgsm --enable-libopencore-amrnb --enable-version3 --enable-nonfree
  libavutil      55. 35.100 / 55. 35.100
  libavcodec     57. 66.101 / 57. 66.101
  libavformat    57. 57.100 / 57. 57.100
  libavdevice    57.  2.100 / 57.  2.100
  libavfilter     6. 66.100 /  6. 66.100
  libswscale      4.  3.100 /  4.  3.100
  libswresample   2.  4.100 /  2.  4.100
  libpostproc    54.  2.100 / 54.  2.100
Input #0, yuv4mpegpipe, from 'Input/y4m/crowd_run_2160p50.y4m':
  Duration: 00:00:10.00, start: 0.000000, bitrate: 4976642 kb/s
    Stream #0:0: Video: rawvideo (I420 / 0x30323449), yuv420p(progressive), 3840x2160, SAR 1:1 DAR 16:9, 50 fps, 50 tbr, 50 tbn, 50 tbc
[h264_nvenc @ 0x2d491c0] The variable bitrate rate-control requires the 'qmin' and/or 'qmax' option set.
Output #0, matroska, to 'Output/NVENCh264/encoded/crowd_run_2160p50llhp11000k.mkv':
  Metadata:
    encoder         : Lavf57.57.100
    Stream #0:0: Video: h264 (h264_nvenc) (Main) (H264 / 0x34363248), yuv420p, 3840x2160 [SAR 1:1 DAR 16:9], q=-1--1, 11000 kb/s, 50 fps, 1k tbn, 50 tbc
    Metadata:
      encoder         : Lavc57.66.101 h264_nvenc
    Side data:
      cpb: bitrate max/min/avg: 0/0/11000000 buffer size: 22000000 vbv_delay: -1
Stream mapping:
  Stream #0:0 -> #0:0 (rawvideo (native) -> h264 (h264_nvenc))
Press [q] to stop, [?] for help
frame=   12 fps=0.0 q=0.0 size=       0kB time=00:00:00.00 bitrate=N/A speed=   0x    frame=   26 fps= 25 q=0.0 size=       0kB time=00:00:00.00 bitrate=N/A speed=   0x    frame=   42 fps= 27 q=43.0 size=       1kB time=00:00:00.22 bitrate=  27.1kbits/s speed=0.141x    frame=   60 fps= 29 q=43.0 size=       1kB time=00:00:00.58 bitrate=  10.3kbits/s speed=0.278x    frame=   78 fps= 30 q=42.0 size=       1kB time=00:00:00.94 bitrate=   6.4kbits/s speed=0.36x    frame=   96 fps= 31 q=42.0 size=       1kB time=00:00:01.30 bitrate=   4.6kbits/s speed=0.415x    frame=  114 fps= 31 q=42.0 size=       1kB time=00:00:01.66 bitrate=   3.6kbits/s speed=0.453x    frame=  123 fps= 27 q=42.0 size=       1kB time=00:00:01.84 bitrate=   3.3kbits/s speed=0.407x    frame=  124 fps= 15 q=42.0 size=       1kB time=00:00:01.86 bitrate=   3.2kbits/s speed=0.232x    frame=  125 fps= 13 q=42.0 size=       1kB time=00:00:01.88 bitrate=   3.2kbits/s speed=0.201x    frame=  143 fps= 14 q=42.0 size=       1kB time=00:00:02.24 bitrate=   2.7kbits/s speed=0.227x    frame=  161 fps= 15 q=43.0 size=       1kB time=00:00:02.60 bitrate=   2.3kbits/s speed=0.25x    frame=  178 fps= 16 q=43.0 size=       1kB time=00:00:02.94 bitrate=   2.0kbits/s speed=0.269x    frame=  195 fps= 17 q=42.0 size=       1kB time=00:00:03.28 bitrate=   1.8kbits/s speed=0.287x    frame=  212 fps= 18 q=43.0 size=       1kB time=00:00:03.62 bitrate=   1.7kbits/s speed=0.303x    frame=  227 fps= 18 q=42.0 size=    5128kB time=00:00:03.92 bitrate=10713.9kbits/s speed=0.315x    frame=  245 fps= 19 q=43.0 size=    5128kB time=00:00:04.28 bitrate=9812.9kbits/s speed=0.329x    frame=  263 fps= 19 q=42.0 size=    5128kB time=00:00:04.64 bitrate=9051.7kbits/s speed=0.343x    frame=  281 fps= 20 q=38.0 size=    6681kB time=00:00:05.00 bitrate=10944.0kbits/s speed=0.356x    frame=  298 fps= 20 q=43.0 size=    6681kB time=00:00:05.34 bitrate=10247.3kbits/s speed=0.367x    frame=  316 fps= 21 q=43.0 size=    6681kB time=00:00:05.70 bitrate=9600.2kbits/s speed=0.378x    frame=  334 fps= 21 q=42.0 size=    6681kB time=00:00:06.06 bitrate=9030.0kbits/s speed=0.389x    frame=  352 fps= 22 q=43.0 size=    6681kB time=00:00:06.42 bitrate=8523.7kbits/s speed=0.399x    frame=  370 fps= 22 q=42.0 size=    6681kB time=00:00:06.78 bitrate=8071.2kbits/s speed=0.408x    frame=  388 fps= 23 q=42.0 size=    6681kB time=00:00:07.14 bitrate=7664.3kbits/s speed=0.416x    frame=  406 fps= 23 q=42.0 size=    6681kB time=00:00:07.50 bitrate=7296.5kbits/s speed=0.425x    frame=  424 fps= 23 q=43.0 size=    6681kB time=00:00:07.86 bitrate=6962.3kbits/s speed=0.432x    frame=  442 fps= 24 q=42.0 size=    6681kB time=00:00:08.22 bitrate=6657.4kbits/s speed=0.44x    frame=  460 fps= 24 q=42.0 size=    6681kB time=00:00:08.58 bitrate=6378.1kbits/s speed=0.447x    frame=  478 fps= 24 q=42.0 size=   11812kB time=00:00:08.94 bitrate=10822.8kbits/s speed=0.453x    frame=  496 fps= 25 q=42.0 size=   11812kB time=00:00:09.30 bitrate=10403.9kbits/s speed=0.46x    frame=  500 fps= 25 q=42.0 Lsize=   13415kB time=00:00:09.98 bitrate=11010.5kbits/s speed=0.489x    
video:13410kB audio:0kB subtitle:0kB other streams:0kB global headers:0kB muxing overhead: 0.035486%
bench: utime=1.120s
bench: maxrss=1409276kB
